<!DOCTYPE svg PUBLIC "-//W3C//DTD SVG 20010904//EN" "http://www.w3.org/TR/2001/REC-SVG-20010904/DTD/svg10.dtd">
<svg version="1.0" xmlns="http://www.w3.org/2000/svg" width="512px" height="512px" viewBox="0 0 5120 5120" preserveAspectRatio="xMidYMid meet">
<g id="layer1" fill="#000000" stroke="none">
 <path d="M189 4931 l-29 -29 0 -582 0 -582 29 -29 29 -29 582 0 582 0 29 29 29 29 0 582 0 582 -29 29 -29 29 -582 0 -582 0 -29 -29z m1031 -611 l0 -420 -420 0 -420 0 0 420 0 420 420 0 420 0 0 -420z"/>
 <path d="M2455 4738 c-37 -20 -55 -51 -55 -98 0 -48 18 -79 57 -99 16 -8 358 -11 1223 -11 865 0 1207 3 1223 11 39 20 57 51 57 99 0 48 -18 79 -57 99 -31 16 -2419 15 -2448 -1z"/>
 <path d="M2455 4098 c-37 -20 -55 -51 -55 -98 0 -48 18 -79 57 -99 16 -8 358 -11 1223 -11 865 0 1207 3 1223 11 39 20 57 51 57 99 0 48 -18 79 -57 99 -31 16 -2419 15 -2448 -1z"/>
 <path d="M189 3221 l-29 -29 0 -582 0 -582 29 -29 29 -29 582 0 582 0 29 29 29 29 0 582 0 582 -29 29 -29 29 -582 0 -582 0 -29 -29z m1031 -611 l0 -420 -420 0 -420 0 0 420 0 420 420 0 420 0 0 -420z"/>
 <path d="M2429 3011 c-41 -42 -41 -107 0 -153 l29 -33 1204 -3 c889 -2 1210 1 1231 9 72 30 92 126 38 180 l-29 29 -1222 0 -1222 0 -29 -29z"/>
 <path d="M2429 2371 c-41 -42 -41 -107 0 -153 l29 -33 1204 -3 c889 -2 1210 1 1231 9 72 30 92 126 38 180 l-29 29 -1222 0 -1222 0 -29 -29z"/>
 <path d="M189 1511 l-29 -29 0 -582 0 -582 29 -29 29 -29 582 0 582 0 29 29 29 29 0 582 0 582 -29 29 -29 29 -582 0 -582 0 -29 -29z m1031 -611 l0 -420 -420 0 -420 0 0 420 0 420 420 0 420 0 0 -420z"/>
 <path d="M2464 1330 c-67 -27 -87 -129 -35 -181 l29 -29 1222 0 1222 0 29 29 c41 42 41 107 0 153 l-29 33 -1209 2 c-664 1 -1218 -2 -1229 -7z"/>
 <path d="M2464 690 c-67 -27 -87 -129 -35 -181 l29 -29 1222 0 1222 0 29 29 c41 42 41 107 0 153 l-29 33 -1209 2 c-664 1 -1218 -2 -1229 -7z"/>
 </g>

</svg>