<?xml version="1.0" encoding="utf-8"?>
<!-- Generator: Adobe Illustrator 18.1.1, SVG Export Plug-In . SVG Version: 6.00 Build 0)  -->
<svg version="1.1" id="Layer_1" xmlns="http://www.w3.org/2000/svg" xmlns:xlink="http://www.w3.org/1999/xlink" x="0px" y="0px"
	 viewBox="0 0 44 44" enable-background="new 0 0 44 44" xml:space="preserve">
<g>
	<defs>
		<rect id="SVGID_1_" width="44" height="44"/>
	</defs>
	<clipPath id="SVGID_2_">
		<use xlink:href="#SVGID_1_"  overflow="visible"/>
	</clipPath>
	<path clip-path="url(#SVGID_2_)" fill="#FC5808" d="M38,22c0-8.8-7.2-16-16-16S6,13.2,6,22s7.2,16,16,16S38,30.8,38,22 M16.3,31.6
		L16.3,31.6c-2.1,0-3.8-1.7-3.8-3.8V16.2c0-2.1,1.7-3.8,3.8-3.8h0h11.5h0c0.5,0,1,0.1,1.5,0.3c0.7,0.3,1.2,0.7,1.6,1.3
		c0,0,0,0,0.1,0.1c0.1,0.1,0.1,0.2,0.1,0.3c0.1,0.1,0.2,0.3,0.2,0.4c0,0,0,0,0,0c0.2,0.4,0.3,0.9,0.3,1.5v0v11.5v0
		c0,0.4-0.1,0.8-0.2,1.1c-0.4,1.2-1.4,2.2-2.6,2.5c-0.1,0-0.1,0.1-0.2,0.1c0,0-0.1,0-0.2,0c-0.2,0-0.4,0.1-0.6,0.1h0H16.3z"/>
	<path clip-path="url(#SVGID_2_)" fill="#FC5808" d="M30.9,14.1c-0.4-0.6-1-1-1.6-1.3C29.9,13,30.4,13.5,30.9,14.1"/>
	<path clip-path="url(#SVGID_2_)" fill="#FC5808" d="M31.3,14.8C31.3,14.8,31.3,14.8,31.3,14.8C31.3,14.8,31.3,14.8,31.3,14.8"/>
	<path clip-path="url(#SVGID_2_)" fill="#FC5808" d="M28.7,31.4c1.3-0.3,2.2-1.3,2.6-2.5C31,30.1,30,31.1,28.7,31.4"/>
	<path clip-path="url(#SVGID_2_)" fill="#FC5808" d="M30.9,14.1c0.1,0.1,0.1,0.2,0.1,0.3C31,14.3,31,14.2,30.9,14.1"/>
	<path clip-path="url(#SVGID_2_)" fill="#FC5808" d="M28.5,31.5c0,0-0.1,0-0.2,0C28.4,31.5,28.5,31.5,28.5,31.5"/>
	<path clip-path="url(#SVGID_2_)" fill="#FC5808" d="M22,18.1c-2.2,0-3.9,1.8-3.9,3.9s1.8,3.9,3.9,3.9s3.9-1.8,3.9-3.9
		S24.2,18.1,22,18.1"/>
	<path clip-path="url(#SVGID_2_)" fill="#FC5808" d="M31,14.4c0.1,0.1,0.2,0.3,0.2,0.4C31.2,14.6,31.1,14.5,31,14.4"/>
	<path clip-path="url(#SVGID_2_)" fill="#FC5808" d="M31.6,27.8L31.6,27.8c0,0.4-0.1,0.8-0.2,1.1C31.5,28.5,31.6,28.1,31.6,27.8"/>
	<path clip-path="url(#SVGID_2_)" fill="#FC5808" d="M31.6,16.2c0-0.5-0.1-1-0.3-1.5C31.5,15.2,31.6,15.7,31.6,16.2L31.6,16.2z"/>
	<path clip-path="url(#SVGID_2_)" fill="#FC5808" d="M30.9,14.1C30.9,14.1,30.9,14.1,30.9,14.1C30.9,14.1,30.9,14.1,30.9,14.1"/>
	<path clip-path="url(#SVGID_2_)" fill="#FC5808" d="M28.7,31.4c-0.1,0-0.1,0.1-0.2,0.1C28.6,31.5,28.7,31.4,28.7,31.4"/>
	<path clip-path="url(#SVGID_2_)" fill="#FC5808" d="M27.8,12.4L27.8,12.4c0.5,0,1,0.1,1.5,0.3C28.8,12.5,28.3,12.4,27.8,12.4"/>
	<path clip-path="url(#SVGID_2_)" fill="#FC5808" d="M12.4,27.8V16.3c0-2.1,1.7-3.8,3.8-3.8h0c-2.1,0-3.8,1.7-3.8,3.8L12.4,27.8
		c0,2.1,1.7,3.8,3.8,3.8h0C14.1,31.6,12.4,29.9,12.4,27.8"/>
	<path clip-path="url(#SVGID_2_)" fill="#FC5808" d="M27.8,31.6c0.2,0,0.4,0,0.6-0.1C28.2,31.5,28,31.6,27.8,31.6L27.8,31.6z"/>
	<path clip-path="url(#SVGID_2_)" fill="#FC5808" d="M22,25.9c2.2,0,3.9-1.8,3.9-3.9C25.9,24.2,24.2,25.9,22,25.9"/>
	<path clip-path="url(#SVGID_2_)" fill="#FC5808" d="M18.1,22c0-2.2,1.8-3.9,3.9-3.9C19.8,18.1,18.1,19.8,18.1,22
		c0,2.2,1.8,3.9,3.9,3.9C19.8,25.9,18.1,24.2,18.1,22"/>
	<path clip-path="url(#SVGID_2_)" fill="#FC5808" d="M22,18.1c2.2,0,3.9,1.8,3.9,3.9C25.9,19.8,24.2,18.1,22,18.1"/>
	<path clip-path="url(#SVGID_2_)" fill="#FC5808" d="M28.3,16.8c0-0.6-0.5-1.2-1.2-1.2c-0.6,0-1.2,0.5-1.2,1.2
		c0,0.6,0.5,1.2,1.2,1.2C27.8,18,28.3,17.5,28.3,16.8"/>
</g>
</svg>
