<?xml version="1.0" encoding="utf-8"?>
<!-- Generator: Adobe Illustrator 18.1.1, SVG Export Plug-In . SVG Version: 6.00 Build 0)  -->
<svg version="1.1" id="Layer_1" xmlns="http://www.w3.org/2000/svg" xmlns:xlink="http://www.w3.org/1999/xlink" x="0px" y="0px"
	 viewBox="0 0 44 44" enable-background="new 0 0 44 44" xml:space="preserve">
<g>
	<defs>
		<rect id="SVGID_1_" width="44" height="44"/>
	</defs>
	<clipPath id="SVGID_2_">
		<use xlink:href="#SVGID_1_"  overflow="visible"/>
	</clipPath>
	<g clip-path="url(#SVGID_2_)">
		<defs>
			<rect id="SVGID_3_" width="44" height="44"/>
		</defs>
		<clipPath id="SVGID_4_">
			<use xlink:href="#SVGID_3_"  overflow="visible"/>
		</clipPath>
		<path clip-path="url(#SVGID_4_)" fill="none" stroke="#FC5808" stroke-miterlimit="10" d="M27.8,31.6H16.2c-2.1,0-3.8-1.7-3.8-3.8
			V16.3c0-2.1,1.7-3.8,3.8-3.8h11.5c2.1,0,3.8,1.7,3.8,3.8v11.5C31.6,29.9,29.9,31.6,27.8,31.6z"/>
		<circle clip-path="url(#SVGID_4_)" fill="none" stroke="#FC5808" stroke-miterlimit="10" cx="22" cy="22" r="3.9"/>
		<path clip-path="url(#SVGID_4_)" fill="#FC5808" d="M28.3,16.8c0,0.7-0.5,1.2-1.2,1.2c-0.6,0-1.2-0.5-1.2-1.2
			c0-0.6,0.5-1.2,1.2-1.2C27.8,15.6,28.3,16.2,28.3,16.8"/>
	</g>
	<g clip-path="url(#SVGID_2_)">
		<defs>
			<path id="SVGID_5_" d="M18.1,22c0-2.2,1.8-3.9,3.9-3.9s3.9,1.8,3.9,3.9s-1.8,3.9-3.9,3.9S18.1,24.2,18.1,22 M16.2,12.4
				c-2.1,0-3.8,1.7-3.8,3.8v11.5c0,2.1,1.7,3.8,3.8,3.8h11.5c2.1,0,3.8-1.7,3.8-3.8V16.2c0-2.1-1.7-3.8-3.8-3.8H16.2z"/>
		</defs>
		<clipPath id="SVGID_6_">
			<use xlink:href="#SVGID_5_"  overflow="visible"/>
		</clipPath>
		<defs>
			<filter id="Adobe_OpacityMaskFilter" filterUnits="userSpaceOnUse" x="2.9" y="2.9" width="38.2" height="38.2">
				<feColorMatrix  type="matrix" values="1 0 0 0 0  0 1 0 0 0  0 0 1 0 0  0 0 0 1 0"/>
			</filter>
		</defs>
		<mask maskUnits="userSpaceOnUse" x="2.9" y="2.9" width="38.2" height="38.2" id="SVGID_7_">
			<g filter="url(#Adobe_OpacityMaskFilter)">
				
					<linearGradient id="SVGID_8_" gradientUnits="userSpaceOnUse" x1="0" y1="44" x2="1" y2="44" gradientTransform="matrix(16.8856 -16.8856 -16.8856 -16.8856 756.5248 773.4105)">
					<stop  offset="0" style="stop-color:#000000"/>
					<stop  offset="1" style="stop-color:#333333"/>
				</linearGradient>
				<polygon clip-path="url(#SVGID_6_)" fill="url(#SVGID_8_)" points="2.9,22 22,2.9 41.1,22 22,41.1 				"/>
			</g>
		</mask>
		
			<linearGradient id="SVGID_9_" gradientUnits="userSpaceOnUse" x1="0" y1="44" x2="1" y2="44" gradientTransform="matrix(16.8856 -16.8856 -16.8856 -16.8856 756.5248 773.4105)">
			<stop  offset="0" style="stop-color:#FC5808"/>
			<stop  offset="1" style="stop-color:#FC5808"/>
		</linearGradient>
		<polygon clip-path="url(#SVGID_6_)" mask="url(#SVGID_7_)" fill="url(#SVGID_9_)" points="2.9,22 22,2.9 41.1,22 22,41.1 		"/>
	</g>
	<g clip-path="url(#SVGID_2_)">
		<defs>
			<rect id="SVGID_10_" width="44" height="44"/>
		</defs>
		<clipPath id="SVGID_11_">
			<use xlink:href="#SVGID_10_"  overflow="visible"/>
		</clipPath>
		
			<circle clip-path="url(#SVGID_11_)" fill="none" stroke="#FC5808" stroke-width="0.75" stroke-miterlimit="10" cx="22" cy="22" r="16"/>
	</g>
</g>
</svg>
