<?xml version="1.0" encoding="utf-8"?>
<!-- Generator: Adobe Illustrator 18.1.1, SVG Export Plug-In . SVG Version: 6.00 Build 0)  -->
<svg version="1.1" id="Layer_1" xmlns="http://www.w3.org/2000/svg" xmlns:xlink="http://www.w3.org/1999/xlink" x="0px" y="0px"
	 viewBox="0 0 44 44" enable-background="new 0 0 44 44" xml:space="preserve">
<g>
	<defs>
		<rect id="SVGID_1_" width="44" height="44"/>
	</defs>
	<clipPath id="SVGID_2_">
		<use xlink:href="#SVGID_1_"  overflow="visible"/>
	</clipPath>
	
		<circle clip-path="url(#SVGID_2_)" fill="none" stroke="#FC5808" stroke-width="0.75" stroke-miterlimit="10" cx="22" cy="22" r="16"/>
	<path clip-path="url(#SVGID_2_)" fill="none" stroke="#FC5808" stroke-width="0.75" stroke-miterlimit="10" d="M22,14.2
		c1.3,0,2.4,1.1,2.4,2.4S23.3,19,22,19c-1.3,0-2.4-1.1-2.4-2.4S20.7,14.2,22,14.2 M22,22.4c3.2,0,5.8-2.6,5.8-5.8
		c0-3.2-2.6-5.8-5.8-5.8c-3.2,0-5.8,2.6-5.8,5.8C16.2,19.8,18.8,22.4,22,22.4"/>
	<path clip-path="url(#SVGID_2_)" fill="none" stroke="#FC5808" stroke-width="0.75" stroke-miterlimit="10" d="M24.3,27.1
		c1.2-0.3,2.3-0.7,3.3-1.4c0.8-0.5,1-1.5,0.5-2.3c-0.5-0.8-1.5-1-2.3-0.5c-2.4,1.5-5.4,1.5-7.8,0c-0.8-0.5-1.8-0.3-2.3,0.5
		c-0.5,0.8-0.3,1.8,0.5,2.3c1,0.7,2.2,1.1,3.3,1.4l-3.2,3.2c-0.7,0.7-0.7,1.7,0,2.4c0.3,0.3,0.8,0.5,1.2,0.5c0.4,0,0.9-0.2,1.2-0.5
		l3.2-3.2l3.2,3.2c0.7,0.7,1.7,0.7,2.4,0c0.7-0.7,0.7-1.7,0-2.4L24.3,27.1"/>
</g>
</svg>
