<?xml version="1.0" encoding="utf-8"?>
<!-- Generator: Adobe Illustrator 18.1.1, SVG Export Plug-In . SVG Version: 6.00 Build 0)  -->
<svg version="1.1" id="Layer_1" xmlns="http://www.w3.org/2000/svg" xmlns:xlink="http://www.w3.org/1999/xlink" x="0px" y="0px"
	 viewBox="0 0 44 44" enable-background="new 0 0 44 44" xml:space="preserve">
<g>
	<defs>
		<rect id="SVGID_1_" width="44" height="44"/>
	</defs>
	<clipPath id="SVGID_2_">
		<use xlink:href="#SVGID_1_"  overflow="visible"/>
	</clipPath>
	<path clip-path="url(#SVGID_2_)" fill="#FC5808" d="M22,6C13.2,6,6,13.2,6,22s7.2,16,16,16s16-7.2,16-16S30.8,6,22,6 M30.3,28.1
		c-0.7,1.1-1.3,2.2-4.2,2.2c-2.9,0-6.3-2.3-8.5-4.7c-2.2-2.2-4-5.1-4-7.8c0.1-2.9,1.2-3.5,2.2-4.2c0,0,0.6-0.2,1.1,0.2
		c0.5,0.4,2.7,2.7,2.7,2.7s0.8,0.7,0.2,1.4c-0.4,0.6-1.4,1.7-1.6,1.8l0.4,0.7c0,0,0,0,0,0c0.5,0.8,1.5,2.3,2.9,3.4
		c0.6,0.5,1.6,1.1,2.2,1.4l0.4,0.2c0.4-0.4,1.5-1.2,1.8-1.5c0.7-0.5,1.4,0.2,1.4,0.2s2.2,2.2,2.7,2.7C30.5,27.5,30.3,28.1,30.3,28.1
		"/>
</g>
</svg>
