<?xml version="1.0" encoding="utf-8"?>
<!-- Generator: Adobe Illustrator 18.1.1, SVG Export Plug-In . SVG Version: 6.00 Build 0)  -->
<svg version="1.1" id="Layer_1" xmlns="http://www.w3.org/2000/svg" xmlns:xlink="http://www.w3.org/1999/xlink" x="0px" y="0px"
	 viewBox="0 0 44 44" enable-background="new 0 0 44 44" xml:space="preserve">
<g>
	<defs>
		<rect id="SVGID_1_" width="44" height="44"/>
	</defs>
	<clipPath id="SVGID_2_">
		<use xlink:href="#SVGID_1_"  overflow="visible"/>
	</clipPath>
	
		<circle clip-path="url(#SVGID_2_)" fill="none" stroke="#FC5808" stroke-width="0.75" stroke-miterlimit="10" cx="22" cy="22" r="16"/>
	<path clip-path="url(#SVGID_2_)" fill="none" stroke="#FC5808" stroke-width="0.75" stroke-miterlimit="10" d="M21.7,23.9
		c-1.4-1.2-2.4-2.6-2.9-3.4c0,0,0,0,0,0l-0.4-0.7c0.1-0.1,1.1-1.2,1.6-1.8c0.5-0.7-0.2-1.4-0.2-1.4s-2.2-2.2-2.7-2.7
		c-0.5-0.4-1.1-0.2-1.1-0.2c-1.1,0.7-2.2,1.3-2.2,4.2c0,2.7,1.8,5.6,4,7.8c2.2,2.4,5.5,4.7,8.5,4.7c2.9-0.1,3.5-1.2,4.2-2.2
		c0,0,0.2-0.6-0.2-1.1c-0.4-0.5-2.7-2.7-2.7-2.7s-0.7-0.8-1.4-0.2c-0.4,0.3-1.5,1.1-1.8,1.5l-0.4-0.2C23.3,25,22.3,24.5,21.7,23.9z"
		/>
</g>
</svg>
