<?xml version="1.0" encoding="utf-8"?>
<!-- Generator: Adobe Illustrator 18.1.1, SVG Export Plug-In . SVG Version: 6.00 Build 0)  -->
<svg version="1.1" id="Layer_1" xmlns="http://www.w3.org/2000/svg" xmlns:xlink="http://www.w3.org/1999/xlink" x="0px" y="0px"
	 viewBox="0 0 44 44" enable-background="new 0 0 44 44" xml:space="preserve">
<g>
	<defs>
		<rect id="SVGID_1_" width="44" height="44"/>
	</defs>
	<clipPath id="SVGID_2_">
		<use xlink:href="#SVGID_1_"  overflow="visible"/>
	</clipPath>
	
		<circle clip-path="url(#SVGID_2_)" fill="none" stroke="#FC5808" stroke-width="0.75" stroke-miterlimit="10" cx="22" cy="22" r="16"/>
	<path clip-path="url(#SVGID_2_)" fill="none" stroke="#FC5808" stroke-width="0.75" stroke-miterlimit="10" d="M30,17.9
		c0.3,5.8-4,12.2-11.7,12.2c-2.3,0-4.5-0.7-6.3-1.8c2.2,0.3,4.3-0.3,6.1-1.7c-1.8,0-3.3-1.2-3.8-2.8c0.6,0.1,1.3,0.1,1.9-0.1
		c-2-0.4-3.3-2.2-3.3-4.1c0.6,0.3,1.2,0.5,1.9,0.5c-1.8-1.2-2.3-3.6-1.3-5.5c2,2.5,5,4.1,8.5,4.3c-0.6-2.6,1.3-5,4-5
		c1.2,0,2.2,0.5,3,1.3c0.9-0.2,1.8-0.5,2.6-1c-0.3,1-1,1.8-1.8,2.3c0.8-0.1,1.6-0.3,2.4-0.6C31.4,16.6,30.8,17.3,30,17.9z"/>
</g>
</svg>
