<?xml version="1.0" encoding="utf-8"?>
<!-- Generator: Adobe Illustrator 18.1.1, SVG Export Plug-In . SVG Version: 6.00 Build 0)  -->
<svg version="1.1" id="Layer_1" xmlns="http://www.w3.org/2000/svg" xmlns:xlink="http://www.w3.org/1999/xlink" x="0px" y="0px"
	 viewBox="0 0 44 44" enable-background="new 0 0 44 44" xml:space="preserve">
<g>
	<defs>
		<rect id="SVGID_1_" width="44" height="44"/>
	</defs>
	<clipPath id="SVGID_2_">
		<use xlink:href="#SVGID_1_"  overflow="visible"/>
	</clipPath>
	<path clip-path="url(#SVGID_2_)" fill="#FC5808" d="M22.8,20.4c0.6,0,1-0.1,1.3-0.3c0.5-0.2,0.8-0.5,0.9-0.9
		c0.1-0.4,0.2-0.8,0.2-1.3c0-0.4-0.1-0.8-0.3-1.2c-0.2-0.4-0.5-0.7-0.9-0.9c-0.4-0.2-0.8-0.3-1.4-0.3c-0.6,0-1.3,0-2.3,0h-0.5v4.9
		h0.8C21.5,20.4,22.2,20.4,22.8,20.4"/>
	<path clip-path="url(#SVGID_2_)" fill="#FC5808" d="M24.7,23.2c-0.4-0.1-0.9-0.2-1.6-0.2c-0.7,0-1.4,0-2.1,0H20v5.3h0.4
		c1.4,0,2.3,0,2.9,0c0.6,0,1.1-0.1,1.6-0.4c0.5-0.2,0.8-0.6,1-1c0.2-0.4,0.3-0.9,0.3-1.4c0-0.7-0.1-1.2-0.3-1.6
		C25.6,23.7,25.2,23.4,24.7,23.2"/>
	<path clip-path="url(#SVGID_2_)" fill="#FC5808" d="M22,6C13.2,6,6,13.2,6,22s7.2,16,16,16s16-7.2,16-16S30.8,6,22,6 M30.1,28.2
		c-0.3,0.7-0.8,1.3-1.4,1.8c-0.7,0.6-1.5,1-2.3,1.2c-0.8,0.2-1.9,0.4-3.2,0.4h-7.8V12.4h6.9c1.4,0,2.5,0,3.1,0.2
		c0.7,0.1,1.3,0.3,2,0.7c0.7,0.4,1.2,0.9,1.5,1.5c0.3,0.6,0.5,1.3,0.5,2.1c0,0.9-0.2,1.7-0.7,2.5c-0.5,0.7-1.1,1.3-1.9,1.7v0.1
		c1.2,0.3,2.1,0.8,2.8,1.5c0.7,0.8,1,1.8,1,3.1C30.6,26.6,30.4,27.5,30.1,28.2"/>
	<path clip-path="url(#SVGID_2_)" fill="#FC5808" d="M19.9,15.5h0.5c1,0,1.8,0,2.3,0c0.6,0,1,0.1,1.4,0.3c0.4,0.2,0.7,0.5,0.9,0.9
		c0.2,0.4,0.3,0.8,0.3,1.2c0,0.5-0.1,0.9-0.2,1.3c-0.1,0.4-0.4,0.7-0.9,0.9c-0.3,0.2-0.8,0.3-1.3,0.3c-0.6,0-1.3,0-2.1,0h-0.8V15.5z
		 M25.9,27c-0.2,0.4-0.5,0.7-1,1c-0.5,0.2-1,0.4-1.6,0.4c-0.6,0-1.6,0-2.9,0H20V23H21c0.7,0,1.4,0,2.1,0c0.7,0,1.2,0.1,1.6,0.2
		c0.6,0.2,0.9,0.5,1.2,0.8c0.2,0.4,0.3,0.9,0.3,1.6C26.2,26.1,26.1,26.6,25.9,27"/>
</g>
</svg>
