<?xml version="1.0" encoding="utf-8"?>
<!-- Generator: Adobe Illustrator 18.1.1, SVG Export Plug-In . SVG Version: 6.00 Build 0)  -->
<svg version="1.1" id="Layer_1" xmlns="http://www.w3.org/2000/svg" xmlns:xlink="http://www.w3.org/1999/xlink" x="0px" y="0px"
	 viewBox="0 0 44 44" enable-background="new 0 0 44 44" xml:space="preserve">
<g>
	<defs>
		<rect id="SVGID_1_" width="44" height="44"/>
	</defs>
	<clipPath id="SVGID_2_">
		<use xlink:href="#SVGID_1_"  overflow="visible"/>
	</clipPath>
	
		<circle clip-path="url(#SVGID_2_)" fill="none" stroke="#FC5808" stroke-width="0.75" stroke-miterlimit="10" cx="22" cy="22" r="16"/>
	<path clip-path="url(#SVGID_2_)" fill="none" stroke="#FC5808" stroke-width="0.75" stroke-miterlimit="10" d="M29.6,22.6
		c-0.7-0.8-1.6-1.3-2.8-1.5V21c0.8-0.4,1.5-0.9,1.9-1.7c0.5-0.7,0.7-1.5,0.7-2.5c0-0.8-0.2-1.5-0.5-2.1c-0.3-0.6-0.8-1.1-1.5-1.5
		c-0.7-0.4-1.3-0.6-2-0.7c-0.7-0.1-1.7-0.2-3.1-0.2h-6.9v19.2h7.8c1.3,0,2.3-0.1,3.2-0.4c0.8-0.2,1.6-0.6,2.3-1.2
		c0.6-0.5,1.1-1.1,1.4-1.8c0.3-0.7,0.5-1.6,0.5-2.5C30.6,24.4,30.3,23.4,29.6,22.6z M19.9,15.5h0.5c1,0,1.8,0,2.3,0
		c0.6,0,1,0.1,1.4,0.3c0.4,0.2,0.7,0.5,0.9,0.9c0.2,0.4,0.3,0.8,0.3,1.2c0,0.5-0.1,0.9-0.2,1.3c-0.1,0.4-0.4,0.7-0.9,0.9
		c-0.3,0.2-0.8,0.3-1.3,0.3c-0.6,0-1.3,0-2.1,0h-0.8V15.5z M25.9,27c-0.2,0.4-0.5,0.7-1,1c-0.5,0.2-1,0.4-1.6,0.4
		c-0.6,0-1.6,0-2.9,0H20V23H21c0.7,0,1.4,0,2.1,0c0.7,0,1.2,0.1,1.6,0.2c0.6,0.2,0.9,0.5,1.2,0.8c0.2,0.4,0.3,0.9,0.3,1.6
		C26.2,26.1,26.1,26.6,25.9,27z"/>
</g>
</svg>
